<svg version="1.2" xmlns="http://www.w3.org/2000/svg" viewBox="0 0 1024 1024" width="1024" height="1024">
	<style>
		.s0 { fill: #000000 } 
	</style>
	<path id="TRUTH" class="s0" d="m181.8 367.6l-2 1q-9.8-9.4-9.8-20.2 0-8.4 5.4-14.6 10.2-12 28.6-12h94.2q8.8-0.2 15.4-1.4 6.6-1.4 8.4-2.2v34.8h-2v-2.4q0-9-5.4-14.6-5.4-5.6-14.6-5.8h-27v117.4q0.4 7.2 6.6 10.8 2.8 1.6 6.2 1.6h2.6v2h-60.8v-2h2.6q5.2 0 8.8-3.6 3.8-3.6 4-8.6v-117.6h-39q-8.2 0-14.4 3-12.6 6-12.6 18.8 0 7.6 4.8 15.6zm360.2 126.4v2q-15.6 7.8-33.2 7.8-15.6 0-28.4-4.8-27.6-10.2-47-39.8-5-7.2-18.6-27.6-13.6-20.4-17.6-26-7-11-11.2-12v-2q0.2 0 0.4 0 0.4 0 0.8 0 0.4 0 0.8 0 0.4 0 1 0 0.6 0 1 0 10.2 0 18.8-4.6 13-7.2 13-26.6 0-14.2-8-21.8-8-7.8-19.2-7.8h-15.2v116.6q0 5.2 3.8 9 3.8 3.6 9 3.6h2.6v2h-60.8v-2h2.6q5 0 8.8-3.6 3.8-3.6 4-8.8v-111q-0.2-5.2-4-8.8-3.6-3.8-8.8-3.8h-2.6v-2h68.6q25.8 0 40 11.8 11.2 9.2 11.2 26 0 16.8-11 27.4-10.8 10.4-24.8 10.4-1.2 0-2.6-0.2 8.2 4.4 13.6 9.8 5.6 5.4 9.6 10.2 4.2 4.8 7 8.6 3 3.6 7.8 9.8 4.8 6 10 12.6 5.2 6.6 11.4 13.6 6.4 6.8 14 13 7.8 6.2 15.8 10.2 17 8.6 37.4 8.8zm110-212.6q2.6 0 5.4 0.2v2q-23.6 1.8-34 22.4-6.8 13.4-6.8 34v71.4q-0.4 25.2-16.2 39.4-15.8 14-45.2 14-29.2 0-46.6-14.4-17.4-14.6-17.2-38.8v-77.8q0-4.2-3.2-7-3-2.8-7.4-2.8h-3.2v-2h57.6v2h-3.2q-6.2 0-9.2 4.8-1.4 2.2-1.4 4.8v76.4q0 21.2 11 33.6 11 12.4 29 12.4 0.2 0 0.2 0 0 0 0.2 0 17.8 0 29.2-11.6 11.4-11.6 11.4-31.8v-72.6q0-27 14.2-42.8 14.4-15.8 35.4-15.8zm-18.2 86.2l-2 1q-9.8-9.4-9.8-20.2 0-8.4 5.4-14.6 10.2-12 28.6-12h94.2q8.8-0.2 15.4-1.4 6.6-1.4 8.4-2.2v34.8h-2v-2.4q0-9-5.4-14.6-5.4-5.6-14.6-5.8h-27v117.4q0.4 7.2 6.6 10.8 2.8 1.6 6.2 1.6h2.6v2h-60.8v-2h2.6q5.2 0 8.8-3.6 3.8-3.6 4-8.6v-117.6h-39q-8.2 0-14.4 3-12.6 6-12.6 18.8 0 7.6 4.8 15.6zm245.4 92.4h2.4q5.2 0 9-3.6 3.8-3.6 4-8.8v-51h-63v51.4q0 24-12.2 38.2-9.6 11.2-27.6 11.2-5.8 0-12.6-1.4l-0.4-2q14.8-6.2 19-18.4 3.8-10.4 3.8-27.6v-111.6q-0.2-5.2-4-8.8-3.6-3.6-8.8-3.6h-2.6v-2h60.8v2h-2.6q-7.2 0-10.8 6-1.8 2.8-2 6.4v51.6h63v-48q0-23.4 14.6-37.2 11.6-11.4 29.2-11.4 4 0 8.4 0.6l0.4 2q-14.6 5.2-19 18.4-3.6 10.8-3.8 27.6v107.4q0.2 7.2 6.4 10.8 3 1.8 6.6 1.8h2.4v2h-60.6z"/>
</svg>